Metropolis-Light Italic.ufo
<glyph name="numbersign" format="1">
  <advance width="683"/>
  <unicode hex="0023"/>
  <outline>
    <contour>
      <point x="73" y="0" type="line"/>
      <point x="111" y="0" type="line"/>
      <point x="427" y="687" type="line"/>
      <point x="389" y="687" type="line"/>
    </contour>
    <contour>
      <point x="289" y="0" type="line"/>
      <point x="327" y="0" type="line"/>
      <point x="643" y="687" type="line"/>
      <point x="605" y="687" type="line"/>
    </contour>
    <contour>
      <point x="33" y="192" type="line"/>
      <point x="547" y="192" type="line"/>
      <point x="563" y="228" type="line"/>
      <point x="50" y="228" type="line"/>
    </contour>
    <contour>
      <point x="155" y="459" type="line"/>
      <point x="669" y="459" type="line"/>
      <point x="686" y="495" type="line"/>
      <point x="171" y="495" type="line"/>
    </contour>
  </outline>
</glyph>
<glyph name="ampersand" format="1">
  <advance width="691"/>
  <unicode hex="0026"/>
  <outline>
    <contour>
      <point x="234" y="-12" type="curve" smooth="yes"/>
      <point x="356" y="-12"/>
      <point x="470" y="81"/>
      <point x="632" y="315" type="curve"/>
      <point x="601" y="332" type="line"/>
      <point x="448" y="113"/>
      <point x="344" y="24"/>
      <point x="235" y="24" type="curve" smooth="yes"/>
      <point x="149" y="24"/>
      <point x="86" y="81"/>
      <point x="86" y="154" type="curve" smooth="yes"/>
      <point x="86" y="266"/>
      <point x="208" y="321"/>
      <point x="309" y="358" type="curve" smooth="yes"/>
      <point x="426" y="402"/>
      <point x="541" y="449"/>
      <point x="541" y="566" type="curve" smooth="yes"/>
      <point x="541" y="639"/>
      <point x="486" y="695"/>
      <point x="412" y="695" type="curve" smooth="yes"/>
      <point x="319" y="695"/>
      <point x="223" y="603"/>
      <point x="223" y="509" type="curve" smooth="yes"/>
      <point x="223" y="469"/>
      <point x="239" y="428"/>
      <point x="280" y="363" type="curve" smooth="yes"/>
      <point x="338" y="272"/>
      <point x="402" y="171"/>
      <point x="541" y="-6" type="curve"/>
      <point x="579" y="9" type="line"/>
      <point x="475" y="141"/>
      <point x="374" y="279"/>
      <point x="309" y="379" type="curve" smooth="yes"/>
      <point x="270" y="438"/>
      <point x="259" y="476"/>
      <point x="259" y="509" type="curve" smooth="yes"/>
      <point x="259" y="587"/>
      <point x="336" y="659"/>
      <point x="409" y="659" type="curve" smooth="yes"/>
      <point x="466" y="659"/>
      <point x="505" y="614"/>
      <point x="505" y="562" type="curve" smooth="yes"/>
      <point x="505" y="468"/>
      <point x="399" y="432"/>
      <point x="281" y="388" type="curve" smooth="yes"/>
      <point x="175" y="348"/>
      <point x="51" y="284"/>
      <point x="51" y="151" type="curve" smooth="yes"/>
      <point x="51" y="57"/>
      <point x="128" y="-12"/>
    </contour>
  </outline>
</glyph>
<glyph name="parenleft" format="1">
  <advance width="293"/>
  <unicode hex="0028"/>
  <outline>
    <contour>
      <point x="162" y="-169" type="curve"/>
      <point x="191" y="-144" type="line"/>
      <point x="119" y="-51"/>
      <point x="81" y="61"/>
      <point x="81" y="170" type="curve" smooth="yes"/>
      <point x="81" y="358"/>
      <point x="207" y="541"/>
      <point x="362" y="673" type="curve"/>
      <point x="341" y="701" type="line"/>
      <point x="179" y="563"/>
      <point x="45" y="368"/>
      <point x="45" y="168" type="curve" smooth="yes"/>
      <point x="45" y="49"/>
      <point x="86" y="-71"/>
    </contour>
  </outline>
</glyph>
<glyph name="zero" format="1">
  <advance width="664"/>
  <unicode hex="0030"/>
  <outline>
    <contour>
      <point x="279" y="-12" type="curve" smooth="yes"/>
      <point x="481" y="-12"/>
      <point x="625" y="233"/>
      <point x="625" y="450" type="curve" smooth="yes"/>
      <point x="625" y="600"/>
      <point x="548" y="699"/>
      <point x="421" y="699" type="curve" smooth="yes"/>
      <point x="218" y="699"/>
      <point x="75" y="455"/>
      <point x="75" y="237" type="curve" smooth="yes"/>
      <point x="75" y="86"/>
      <point x="151" y="-12"/>
    </contour>
    <contour>
      <point x="281" y="24" type="curve" smooth="yes"/>
      <point x="173" y="24"/>
      <point x="110" y="110"/>
      <point x="110" y="242" type="curve" smooth="yes"/>
      <point x="110" y="433"/>
      <point x="237" y="663"/>
      <point x="419" y="663" type="curve" smooth="yes"/>
      <point x="527" y="663"/>
      <point x="590" y="577"/>
      <point x="590" y="446" type="curve" smooth="yes"/>
      <point x="590" y="255"/>
      <point x="463" y="24"/>
    </contour>
  </outline>
</glyph>
<glyph name="two" format="1">
  <advance width="544"/>
  <unicode hex="0032"/>
  <outline>
    <contour>
      <point x="-26" y="0" type="line"/>
      <point x="438" y="0" type="line"/>
      <point x="446" y="36" type="line"/>
      <point x="32" y="36" type="line"/>
      <point x="316" y="240" type="line" smooth="yes"/>
      <point x="430" y="323"/>
      <point x="528" y="425"/>
      <point x="528" y="538" type="curve" smooth="yes"/>
      <point x="528" y="626"/>
      <point x="465" y="699"/>
      <point x="356" y="699" type="curve" smooth="yes"/>
      <point x="275" y="699"/>
      <point x="179" y="659"/>
      <point x="98" y="568" type="curve"/>
      <point x="123" y="544" type="line"/>
      <point x="195" y="623"/>
      <point x="281" y="665"/>
      <point x="357" y="665" type="curve" smooth="yes"/>
      <point x="445" y="665"/>
      <point x="492" y="604"/>
      <point x="492" y="535" type="curve" smooth="yes"/>
      <point x="492" y="436"/>
      <point x="401" y="346"/>
      <point x="296" y="269" type="curve" smooth="yes"/>
      <point x="-18" y="39" type="line"/>
    </contour>
  </outline>
</glyph>
<glyph name="three" format="1">
  <advance width="561"/>
  <unicode hex="0033"/>
  <outline>
    <contour>
      <point x="213" y="-12" type="curve" smooth="yes"/>
      <point x="343" y="-12"/>
      <point x="474" y="99"/>
      <point x="474" y="226" type="curve" smooth="yes"/>
      <point x="474" y="291"/>
      <point x="438" y="337"/>
      <point x="377" y="351" type="curve"/>
      <point x="465" y="377"/>
      <point x="525" y="457"/>
      <point x="525" y="543" type="curve" smooth="yes"/>
      <point x="525" y="631"/>
      <point x="452" y="699"/>
      <point x="352" y="699" type="curve" smooth="yes"/>
      <point x="268" y="699"/>
      <point x="187" y="657"/>
      <point x="103" y="569" type="curve"/>
      <point x="127" y="543" type="line"/>
      <point x="199" y="623"/>
      <point x="272" y="663"/>
      <point x="346" y="663" type="curve" smooth="yes"/>
      <point x="429" y="663"/>
      <point x="489" y="607"/>
      <point x="489" y="537" type="curve" smooth="yes"/>
      <point x="489" y="432"/>
      <point x="393" y="366"/>
      <point x="271" y="366" type="curve" smooth="yes"/>
      <point x="210" y="366" type="line"/>
      <point x="202" y="330" type="line"/>
      <point x="266" y="330" type="line" smooth="yes"/>
      <point x="376" y="330"/>
      <point x="437" y="290"/>
      <point x="437" y="221" type="curve" smooth="yes"/>
      <point x="437" y="117"/>
      <point x="326" y="24"/>
      <point x="215" y="24" type="curve" smooth="yes"/>
      <point x="129" y="24"/>
      <point x="69" y="63"/>
      <point x="33" y="144" type="curve"/>
      <point x="3" y="121" type="line"/>
      <point x="52" y="32"/>
      <point x="120" y="-12"/>
    </contour>
  </outline>
</glyph>
<glyph name="seven" format="1">
  <advance width="470"/>
  <unicode hex="0037"/>
  <outline>
    <contour>
      <point x="53" y="0" type="line"/>
      <point x="94" y="0" type="line"/>
      <point x="540" y="658" type="line"/>
      <point x="545" y="687" type="line"/>
      <point x="90" y="687" type="line"/>
      <point x="83" y="651" type="line"/>
      <point x="495" y="651" type="line"/>
    </contour>
  </outline>
</glyph>
<glyph name="colon" format="1">
  <advance width="311"/>
  <unicode hex="003A"/>
  <outline>
    <contour>
      <point x="196" y="437" type="curve" smooth="yes"/>
      <point x="213" y="437"/>
      <point x="229" y="454"/>
      <point x="229" y="472" type="curve" smooth="yes"/>
      <point x="229" y="486"/>
      <point x="218" y="497"/>
      <point x="203" y="497" type="curve" smooth="yes"/>
      <point x="183" y="497"/>
      <point x="169" y="480"/>
      <point x="169" y="465" type="curve" smooth="yes"/>
      <point x="169" y="449"/>
      <point x="179" y="437"/>
    </contour>
    <contour>
      <point x="103" y="-12" type="curve" smooth="yes"/>
      <point x="119" y="-12"/>
      <point x="135" y="4"/>
      <point x="135" y="22" type="curve" smooth="yes"/>
      <point x="135" y="36"/>
      <point x="125" y="48"/>
      <point x="109" y="48" type="curve" smooth="yes"/>
      <point x="90" y="48"/>
      <point x="75" y="29"/>
      <point x="75" y="14" type="curve" smooth="yes"/>
      <point x="75" y="-1"/>
      <point x="86" y="-12"/>
    </contour>
  </outline>
</glyph>
<glyph name="greater" format="1">
  <advance width="592"/>
  <unicode hex="003E"/>
  <outline>
    <contour>
      <point x="50" y="102" type="line"/>
      <point x="551" y="322" type="line"/>
      <point x="559" y="366" type="line"/>
      <point x="150" y="586" type="line"/>
      <point x="141" y="542" type="line"/>
      <point x="508" y="344" type="line"/>
      <point x="59" y="146" type="line"/>
    </contour>
  </outline>
</glyph>
<glyph name="C" format="1">
  <advance width="697"/>
  <unicode hex="0043"/>
  <outline>
    <contour>
      <point x="356" y="-12" type="curve" smooth="yes"/>
      <point x="446" y="-12"/>
      <point x="554" y="33"/>
      <point x="626" y="92" type="curve"/>
      <point x="603" y="120" type="line"/>
      <point x="537" y="64"/>
      <point x="438" y="24"/>
      <point x="358" y="24" type="curve" smooth="yes"/>
      <point x="226" y="24"/>
      <point x="107" y="134"/>
      <point x="107" y="289" type="curve" smooth="yes"/>
      <point x="107" y="481"/>
      <point x="291" y="663"/>
      <point x="490" y="663" type="curve" smooth="yes"/>
      <point x="584" y="663"/>
      <point x="657" y="622"/>
      <point x="699" y="570" type="curve"/>
      <point x="728" y="593" type="line"/>
      <point x="677" y="655"/>
      <point x="593" y="699"/>
      <point x="491" y="699" type="curve" smooth="yes"/>
      <point x="273" y="699"/>
      <point x="71" y="499"/>
      <point x="71" y="286" type="curve" smooth="yes"/>
      <point x="71" y="110"/>
      <point x="208" y="-12"/>
    </contour>
    <contour>
      <point x="354" y="0" type="move" name="bottom"/>
    </contour>
    <contour>
      <point x="493" y="687" type="move" name="top"/>
    </contour>
  </outline>
</glyph>
<glyph name="D" format="1">
  <advance width="772"/>
  <unicode hex="0044"/>
  <outline>
    <contour>
      <point x="72" y="0" type="line"/>
      <point x="309" y="0" type="line" smooth="yes"/>
      <point x="542" y="0"/>
      <point x="739" y="192"/>
      <point x="739" y="421" type="curve" smooth="yes"/>
      <point x="739" y="577"/>
      <point x="619" y="687"/>
      <point x="449" y="687" type="curve" smooth="yes"/>
      <point x="215" y="687" type="line"/>
    </contour>
    <contour>
      <point x="116" y="36" type="line"/>
      <point x="244" y="651" type="line"/>
      <point x="444" y="651" type="line" smooth="yes"/>
      <point x="596" y="651"/>
      <point x="703" y="554"/>
      <point x="703" y="416" type="curve" smooth="yes"/>
      <point x="703" y="210"/>
      <point x="525" y="36"/>
      <point x="313" y="36" type="curve" smooth="yes"/>
    </contour>
    <contour>
      <point x="449" y="687" type="move" name="top"/>
    </contour>
  </outline>
</glyph>
<glyph name="F" format="1">
  <advance width="620"/>
  <unicode hex="0046"/>
  <outline>
    <contour>
      <point x="72" y="0" type="line"/>
      <point x="108" y="0" type="line"/>
      <point x="179" y="342" type="line"/>
      <point x="167" y="332" type="line"/>
      <point x="572" y="332" type="line"/>
      <point x="579" y="368" type="line"/>
      <point x="176" y="368" type="line"/>
      <point x="183" y="358" type="line"/>
      <point x="245" y="661" type="line"/>
      <point x="233" y="651" type="line"/>
      <point x="679" y="651" type="line"/>
      <point x="686" y="687" type="line"/>
      <point x="215" y="687" type="line"/>
    </contour>
  </outline>
</glyph>
<glyph name="J" format="1">
  <advance width="525"/>
  <unicode hex="004A"/>
  <outline>
    <contour>
      <point x="154" y="-12" type="curve" smooth="yes"/>
      <point x="273" y="-12"/>
      <point x="376" y="81"/>
      <point x="404" y="213" type="curve" smooth="yes"/>
      <point x="502" y="687" type="line"/>
      <point x="466" y="687" type="line"/>
      <point x="368" y="215" type="line" smooth="yes"/>
      <point x="345" y="104"/>
      <point x="257" y="24"/>
      <point x="156" y="24" type="curve" smooth="yes"/>
      <point x="85" y="24"/>
      <point x="27" y="67"/>
      <point x="0" y="129" type="curve"/>
      <point x="-26" y="103" type="line"/>
      <point x="3" y="36"/>
      <point x="70" y="-12"/>
    </contour>
  </outline>
</glyph>
<glyph name="K" format="1">
  <advance width="642"/>
  <unicode hex="004B"/>
  <outline>
    <contour>
      <point x="72" y="0" type="line"/>
      <point x="108" y="0" type="line"/>
      <point x="152" y="205" type="line"/>
      <point x="314" y="349" type="line"/>
      <point x="527" y="0" type="line"/>
      <point x="572" y="0" type="line"/>
      <point x="344" y="376" type="line"/>
      <point x="694" y="687" type="line"/>
      <point x="645" y="687" type="line"/>
      <point x="161" y="257" type="line"/>
      <point x="251" y="687" type="line"/>
      <point x="215" y="687" type="line"/>
    </contour>
    <contour>
      <point x="308" y="0" type="move" name="bottom"/>
    </contour>
  </outline>
</glyph>
<glyph name="O" format="1">
  <advance width="818"/>
  <unicode hex="004F"/>
  <outline>
    <contour>
      <point x="355" y="-12" type="curve" smooth="yes"/>
      <point x="573" y="-12"/>
      <point x="784" y="194"/>
      <point x="784" y="410" type="curve" smooth="yes"/>
      <point x="784" y="572"/>
      <point x="665" y="699"/>
      <point x="498" y="699" type="curve" smooth="yes"/>
      <point x="283" y="699"/>
      <point x="68" y="489"/>
      <point x="68" y="272" type="curve" smooth="yes"/>
      <point x="68" y="110"/>
      <point x="187" y="-12"/>
    </contour>
    <contour>
      <point x="358" y="24" type="curve" smooth="yes"/>
      <point x="209" y="24"/>
      <point x="104" y="132"/>
      <point x="104" y="276" type="curve" smooth="yes"/>
      <point x="104" y="472"/>
      <point x="300" y="663"/>
      <point x="494" y="663" type="curve" smooth="yes"/>
      <point x="643" y="663"/>
      <point x="749" y="551"/>
      <point x="749" y="408" type="curve" smooth="yes"/>
      <point x="749" y="215"/>
      <point x="555" y="24"/>
    </contour>
    <contour>
      <point x="495" y="687" type="move" name="top"/>
    </contour>
  </outline>
</glyph>
<glyph name="S" format="1">
  <advance width="606"/>
  <unicode hex="0053"/>
  <outline>
    <contour>
      <point x="260" y="-11" type="curve" smooth="yes"/>
      <point x="409" y="-11"/>
      <point x="534" y="89"/>
      <point x="534" y="208" type="curve" smooth="yes"/>
      <point x="534" y="294"/>
      <point x="474" y="327"/>
      <point x="340" y="365" type="curve" smooth="yes"/>
      <point x="237" y="394"/>
      <point x="163" y="415"/>
      <point x="163" y="490" type="curve" smooth="yes"/>
      <point x="163" y="584"/>
      <point x="265" y="664"/>
      <point x="387" y="664" type="curve" smooth="yes"/>
      <point x="464" y="664"/>
      <point x="536" y="629"/>
      <point x="580" y="575" type="curve"/>
      <point x="606" y="601" type="line"/>
      <point x="551" y="663"/>
      <point x="472" y="700"/>
      <point x="389" y="700" type="curve" smooth="yes"/>
      <point x="247" y="700"/>
      <point x="127" y="600"/>
      <point x="127" y="481" type="curve" smooth="yes"/>
      <point x="127" y="397"/>
      <point x="191" y="369"/>
      <point x="322" y="332" type="curve" smooth="yes"/>
      <point x="420" y="305"/>
      <point x="497" y="282"/>
      <point x="497" y="200" type="curve" smooth="yes"/>
      <point x="497" y="105"/>
      <point x="390" y="25"/>
      <point x="262" y="25" type="curve" smooth="yes"/>
      <point x="179" y="25"/>
      <point x="89" y="59"/>
      <point x="37" y="125" type="curve"/>
      <point x="12" y="99" type="line"/>
      <point x="71" y="26"/>
      <point x="168" y="-11"/>
    </contour>
    <contour>
      <point x="256" y="0" type="move" name="bottom"/>
    </contour>
    <contour>
      <point x="397" y="687" type="move" name="top"/>
    </contour>
  </outline>
</glyph>
<glyph name="T" format="1">
  <advance width="542"/>
  <unicode hex="0054"/>
  <outline>
    <contour>
      <point x="199" y="0" type="line"/>
      <point x="235" y="0" type="line"/>
      <point x="371" y="651" type="line"/>
      <point x="623" y="651" type="line"/>
      <point x="630" y="687" type="line"/>
      <point x="90" y="687" type="line"/>
      <point x="83" y="651" type="line"/>
      <point x="335" y="651" type="line"/>
    </contour>
    <contour>
      <point x="208" y="0" type="move" name="bottom"/>
    </contour>
    <contour>
      <point x="361" y="687" type="move" name="top"/>
    </contour>
  </outline>
</glyph>
<glyph name="W" format="1">
  <advance width="1013"/>
  <unicode hex="0057"/>
  <outline>
    <contour>
      <point x="203" y="0" type="line"/>
      <point x="242" y="0" type="line"/>
      <point x="584" y="629" type="line"/>
      <point x="663" y="0" type="line"/>
      <point x="702" y="0" type="line"/>
      <point x="1075" y="687" type="line"/>
      <point x="1035" y="687" type="line"/>
      <point x="694" y="58" type="line"/>
      <point x="614" y="687" type="line"/>
      <point x="575" y="687" type="line"/>
      <point x="234" y="58" type="line"/>
      <point x="154" y="687" type="line"/>
      <point x="116" y="687" type="line"/>
    </contour>
    <contour>
      <point x="595" y="687" type="move" name="top"/>
    </contour>
  </outline>
</glyph>
<glyph name="X" format="1">
  <advance width="624"/>
  <unicode hex="0058"/>
  <outline>
    <contour>
      <point x="498" y="0" type="line"/>
      <point x="116" y="687" type="line"/>
      <point x="158" y="687" type="line"/>
      <point x="541" y="0" type="line"/>
    </contour>
    <contour>
      <point x="-29" y="0" type="line"/>
      <point x="640" y="687" type="line"/>
      <point x="687" y="687" type="line"/>
      <point x="18" y="0" type="line"/>
    </contour>
  </outline>
</glyph>
<glyph name="Z" format="1">
  <advance width="571"/>
  <unicode hex="005A"/>
  <outline>
    <contour>
      <point x="-21" y="0" type="line"/>
      <point x="483" y="0" type="line"/>
      <point x="491" y="36" type="line"/>
      <point x="31" y="36" type="line"/>
      <point x="617" y="657" type="line"/>
      <point x="622" y="687" type="line"/>
      <point x="128" y="687" type="line"/>
      <point x="121" y="651" type="line"/>
      <point x="570" y="651" type="line"/>
      <point x="-16" y="30" type="line"/>
    </contour>
    <contour>
      <point x="375" y="687" type="move" name="top"/>
    </contour>
  </outline>
</glyph>
<glyph name="bracketright" format="1">
  <advance width="358"/>
  <unicode hex="005D"/>
  <outline>
    <contour>
      <point x="-62" y="-115" type="line"/>
      <point x="159" y="-115" type="line"/>
      <point x="335" y="734" type="line"/>
      <point x="114" y="734" type="line"/>
      <point x="107" y="698" type="line"/>
      <point x="292" y="698" type="line"/>
      <point x="130" y="-79" type="line"/>
      <point x="-55" y="-79" type="line"/>
    </contour>
  </outline>
</glyph>
<glyph name="asciicircum" format="1">
  <advance width="506"/>
  <unicode hex="005E"/>
  <outline>
    <contour>
      <point x="104" y="413" type="line"/>
      <point x="149" y="413" type="line"/>
      <point x="335" y="647" type="line"/>
      <point x="423" y="413" type="line"/>
      <point x="466" y="413" type="line"/>
      <point x="363" y="687" type="line"/>
      <point x="321" y="687" type="line"/>
    </contour>
  </outline>
</glyph>
<glyph name="e" format="1">
  <advance width="567"/>
  <unicode hex="0065"/>
  <outline>
    <contour>
      <point x="245" y="-12" type="curve" smooth="yes"/>
      <point x="326" y="-12"/>
      <point x="424" y="20"/>
      <point x="476" y="67" type="curve"/>
      <point x="455" y="96" type="line"/>
      <point x="403" y="49"/>
      <point x="325" y="24"/>
      <point x="250" y="24" type="curve" smooth="yes"/>
      <point x="148" y="24"/>
      <point x="76" y="105"/>
      <point x="76" y="209" type="curve" smooth="yes"/>
      <point x="76" y="350"/>
      <point x="204" y="493"/>
      <point x="350" y="493" type="curve" smooth="yes"/>
      <point x="441" y="493"/>
      <point x="505" y="448"/>
      <point x="505" y="385" type="curve" smooth="yes"/>
      <point x="505" y="318"/>
      <point x="431" y="278"/>
      <point x="305" y="278" type="curve"/>
      <point x="70" y="278" type="line"/>
      <point x="63" y="242" type="line"/>
      <point x="298" y="242" type="line"/>
      <point x="451" y="242"/>
      <point x="541" y="296"/>
      <point x="541" y="387" type="curve" smooth="yes"/>
      <point x="541" y="470"/>
      <point x="464" y="529"/>
      <point x="356" y="529" type="curve" smooth="yes"/>
      <point x="191" y="529"/>
      <point x="40" y="371"/>
      <point x="40" y="205" type="curve" smooth="yes"/>
      <point x="40" y="82"/>
      <point x="124" y="-12"/>
    </contour>
    <contour>
      <point x="246" y="-12" type="move" name="bottom"/>
    </contour>
    <contour>
      <point x="353" y="517" type="move" name="top"/>
    </contour>
  </outline>
</glyph>
<glyph name="f" format="1">
  <advance width="289"/>
  <unicode hex="0066"/>
  <outline>
    <contour>
      <point x="64" y="0" type="line"/>
      <point x="100" y="0" type="line"/>
      <point x="222" y="587" type="line" smooth="yes"/>
      <point x="234" y="643"/>
      <point x="272" y="684"/>
      <point x="323" y="684" type="curve" smooth="yes"/>
      <point x="344" y="684"/>
      <point x="368" y="677"/>
      <point x="385" y="660" type="curve"/>
      <point x="409" y="686" type="line"/>
      <point x="385" y="708"/>
      <point x="355" y="720"/>
      <point x="317" y="720" type="curve" smooth="yes"/>
      <point x="257" y="720"/>
      <point x="203" y="666"/>
      <point x="187" y="589" type="curve" smooth="yes"/>
    </contour>
    <contour>
      <point x="74" y="481" type="line"/>
      <point x="346" y="481" type="line"/>
      <point x="353" y="517" type="line"/>
      <point x="81" y="517" type="line"/>
    </contour>
  </outline>
</glyph>
<glyph name="g" format="1">
  <advance width="620"/>
  <unicode hex="0067"/>
  <outline>
    <contour>
      <point x="537" y="517" type="line"/>
      <point x="441" y="56" type="line" smooth="yes"/>
      <point x="418" y="-56"/>
      <point x="315" y="-136"/>
      <point x="198" y="-136" type="curve" smooth="yes"/>
      <point x="132" y="-136"/>
      <point x="60" y="-110"/>
      <point x="23" y="-72" type="curve"/>
      <point x="1" y="-102" type="line"/>
      <point x="40" y="-142"/>
      <point x="121" y="-172"/>
      <point x="198" y="-172" type="curve" smooth="yes"/>
      <point x="334" y="-172"/>
      <point x="449" y="-79"/>
      <point x="477" y="54" type="curve" smooth="yes"/>
      <point x="573" y="517" type="line"/>
    </contour>
    <contour>
      <point x="238" y="74" type="curve" smooth="yes"/>
      <point x="139" y="74"/>
      <point x="77" y="145"/>
      <point x="77" y="237" type="curve" smooth="yes"/>
      <point x="77" y="365"/>
      <point x="196" y="493"/>
      <point x="331" y="493" type="curve" smooth="yes"/>
      <point x="428" y="493"/>
      <point x="494" y="426"/>
      <point x="494" y="332" type="curve" smooth="yes"/>
      <point x="494" y="199"/>
      <point x="372" y="74"/>
    </contour>
    <contour>
      <point x="473" y="185" type="curve"/>
      <point x="513" y="381" type="line"/>
      <point x="500" y="476"/>
      <point x="421" y="529"/>
      <point x="329" y="529" type="curve" smooth="yes"/>
      <point x="178" y="529"/>
      <point x="41" y="385"/>
      <point x="41" y="232" type="curve" smooth="yes"/>
      <point x="41" y="121"/>
      <point x="117" y="38"/>
      <point x="230" y="38" type="curve" smooth="yes"/>
      <point x="315" y="38"/>
      <point x="418" y="86"/>
    </contour>
    <contour>
      <point x="198" y="-172" type="move" name="bottom"/>
    </contour>
    <contour>
      <point x="343" y="517" type="move" name="top"/>
    </contour>
  </outline>
</glyph>
<glyph name="k" format="1">
  <advance width="517"/>
  <unicode hex="006B"/>
  <outline>
    <contour>
      <point x="47" y="0" type="line"/>
      <point x="83" y="0" type="line"/>
      <point x="111" y="134" type="line"/>
      <point x="254" y="255" type="line"/>
      <point x="399" y="0" type="line"/>
      <point x="444" y="0" type="line"/>
      <point x="283" y="280" type="line"/>
      <point x="565" y="517" type="line"/>
      <point x="513" y="517" type="line"/>
      <point x="122" y="187" type="line"/>
      <point x="228" y="699" type="line"/>
      <point x="192" y="699" type="line"/>
    </contour>
    <contour>
      <point x="233" y="0" type="move" name="bottom"/>
    </contour>
  </outline>
</glyph>
<glyph name="n" format="1">
  <advance width="585"/>
  <unicode hex="006E"/>
  <outline>
    <component base="idotless"/>
    <component base="lowercase_nh_shoulder" xOffset="113"/>
    <contour>
      <point x="239" y="0" type="move" name="bottom"/>
    </contour>
    <contour>
      <point x="344" y="517" type="move" name="top"/>
    </contour>
  </outline>
</glyph>
<glyph name="s" format="1">
  <advance width="470"/>
  <unicode hex="0073"/>
  <outline>
    <contour>
      <point x="190" y="-12" type="curve" smooth="yes"/>
      <point x="287" y="-12"/>
      <point x="397" y="53"/>
      <point x="397" y="149" type="curve" smooth="yes"/>
      <point x="397" y="208"/>
      <point x="354" y="246"/>
      <point x="255" y="278" type="curve" smooth="yes"/>
      <point x="165" y="310"/>
      <point x="127" y="341"/>
      <point x="127" y="382" type="curve" smooth="yes"/>
      <point x="127" y="441"/>
      <point x="205" y="493"/>
      <point x="287" y="493" type="curve" smooth="yes"/>
      <point x="338" y="493"/>
      <point x="394" y="475"/>
      <point x="438" y="444" type="curve"/>
      <point x="464" y="470" type="line"/>
      <point x="415" y="506"/>
      <point x="351" y="529"/>
      <point x="289" y="529" type="curve" smooth="yes"/>
      <point x="196" y="529"/>
      <point x="91" y="466"/>
      <point x="91" y="373" type="curve" smooth="yes"/>
      <point x="91" y="318"/>
      <point x="135" y="280"/>
      <point x="237" y="248" type="curve" smooth="yes"/>
      <point x="323" y="218"/>
      <point x="360" y="188"/>
      <point x="360" y="143" type="curve" smooth="yes"/>
      <point x="360" y="70"/>
      <point x="270" y="24"/>
      <point x="192" y="24" type="curve" smooth="yes"/>
      <point x="132" y="24"/>
      <point x="66" y="49"/>
      <point x="15" y="92" type="curve"/>
      <point x="-10" y="66" type="line"/>
      <point x="40" y="18"/>
      <point x="114" y="-12"/>
    </contour>
    <contour>
      <point x="185" y="0" type="move" name="bottom"/>
    </contour>
    <contour>
      <point x="293" y="517" type="move" name="top"/>
    </contour>
  </outline>
</glyph>
<glyph name="t" format="1">
  <advance width="325"/>
  <unicode hex="0074"/>
  <outline>
    <contour>
      <point x="165" y="-12" type="curve" smooth="yes"/>
      <point x="197" y="-12"/>
      <point x="234" y="-1"/>
      <point x="266" y="20" type="curve"/>
      <point x="249" y="51" type="line"/>
      <point x="226" y="35"/>
      <point x="196" y="24"/>
      <point x="169" y="24" type="curve" smooth="yes"/>
      <point x="136" y="24"/>
      <point x="116" y="50"/>
      <point x="116" y="89" type="curve" smooth="yes"/>
      <point x="116" y="115"/>
      <point x="121" y="126"/>
      <point x="232" y="659" type="curve"/>
      <point x="196" y="659" type="line"/>
      <point x="87" y="135"/>
      <point x="80" y="115"/>
      <point x="80" y="84" type="curve" smooth="yes"/>
      <point x="80" y="27"/>
      <point x="112" y="-12"/>
    </contour>
    <contour>
      <point x="68" y="481" type="line"/>
      <point x="331" y="481" type="line"/>
      <point x="338" y="517" type="line"/>
      <point x="75" y="517" type="line"/>
    </contour>
    <contour>
      <point x="167" y="0" type="move" name="bottom"/>
    </contour>
  </outline>
</glyph>
<glyph name="w" format="1">
  <advance width="761"/>
  <unicode hex="0077"/>
  <outline>
    <contour>
      <point x="134" y="0" type="line"/>
      <point x="179" y="0" type="line"/>
      <point x="421" y="450" type="line"/>
      <point x="475" y="0" type="line"/>
      <point x="520" y="0" type="line"/>
      <point x="797" y="517" type="line"/>
      <point x="760" y="517" type="line"/>
      <point x="507" y="48" type="line"/>
      <point x="450" y="517" type="line"/>
      <point x="419" y="517" type="line"/>
      <point x="166" y="48" type="line"/>
      <point x="109" y="517" type="line"/>
      <point x="72" y="517" type="line"/>
    </contour>
    <contour>
      <point x="435" y="517" type="move" name="top"/>
    </contour>
  </outline>
</glyph>
<glyph name="x" format="1">
  <advance width="470"/>
  <unicode hex="0078"/>
  <outline>
    <contour>
      <point x="359" y="0" type="line"/>
      <point x="402" y="0" type="line"/>
      <point x="118" y="517" type="line"/>
      <point x="76" y="517" type="line"/>
    </contour>
    <contour>
      <point x="-41" y="0" type="line"/>
      <point x="4" y="0" type="line"/>
      <point x="503" y="517" type="line"/>
      <point x="457" y="517" type="line"/>
    </contour>
  </outline>
</glyph>
<glyph name="braceleft" format="1">
  <advance width="335"/>
  <unicode hex="007B"/>
  <outline>
    <contour>
      <point x="229" y="-166" type="curve"/>
      <point x="238" y="-131" type="line"/>
      <point x="147" y="-121"/>
      <point x="108" y="-92"/>
      <point x="108" y="-33" type="curve" smooth="yes"/>
      <point x="108" y="12"/>
      <point x="149" y="147"/>
      <point x="149" y="193" type="curve" smooth="yes"/>
      <point x="149" y="232"/>
      <point x="132" y="254"/>
      <point x="98" y="265" type="curve"/>
      <point x="152" y="280"/>
      <point x="177" y="312"/>
      <point x="191" y="379" type="curve" smooth="yes"/>
      <point x="220" y="523" type="line" smooth="yes"/>
      <point x="238" y="609"/>
      <point x="292" y="650"/>
      <point x="406" y="662" type="curve"/>
      <point x="406" y="697" type="line"/>
      <point x="270" y="682"/>
      <point x="209" y="635"/>
      <point x="187" y="529" type="curve" smooth="yes"/>
      <point x="157" y="389" type="line" smooth="yes"/>
      <point x="142" y="315"/>
      <point x="102" y="284"/>
      <point x="21" y="284" type="curve"/>
      <point x="17" y="248" type="line"/>
      <point x="83" y="248"/>
      <point x="111" y="229"/>
      <point x="111" y="181" type="curve" smooth="yes"/>
      <point x="111" y="128"/>
      <point x="72" y="24"/>
      <point x="72" y="-43" type="curve" smooth="yes"/>
      <point x="72" y="-117"/>
      <point x="121" y="-153"/>
    </contour>
  </outline>
</glyph>
<glyph name="sterling" format="1">
  <advance width="643"/>
  <unicode hex="00A3"/>
  <outline>
    <contour>
      <point x="55" y="0" type="line"/>
      <point x="523" y="0" type="line"/>
      <point x="531" y="36" type="line"/>
      <point x="134" y="36" type="line"/>
      <point x="143" y="24" type="line"/>
      <point x="233" y="462" type="line" smooth="yes"/>
      <point x="258" y="579"/>
      <point x="347" y="663"/>
      <point x="448" y="663" type="curve" smooth="yes"/>
      <point x="528" y="663"/>
      <point x="586" y="625"/>
      <point x="603" y="558" type="curve"/>
      <point x="631" y="578" type="line"/>
      <point x="611" y="653"/>
      <point x="544" y="699"/>
      <point x="450" y="699" type="curve" smooth="yes"/>
      <point x="330" y="699"/>
      <point x="227" y="602"/>
      <point x="198" y="464" type="curve" smooth="yes"/>
      <point x="109" y="36" type="line"/>
      <point x="59" y="18" type="line"/>
    </contour>
    <contour>
      <point x="113" y="277" type="line"/>
      <point x="408" y="277" type="line"/>
      <point x="416" y="313" type="line"/>
      <point x="121" y="313" type="line"/>
    </contour>
  </outline>
</glyph>
<glyph name="registered" format="1">
  <advance width="679"/>
  <unicode hex="00AE"/>
  <outline>
    <contour>
      <point x="325" y="184" type="curve" smooth="yes"/>
      <point x="478" y="184"/>
      <point x="627" y="327"/>
      <point x="627" y="479" type="curve" smooth="yes"/>
      <point x="627" y="591"/>
      <point x="545" y="675"/>
      <point x="427" y="675" type="curve" smooth="yes"/>
      <point x="272" y="675"/>
      <point x="124" y="534"/>
      <point x="124" y="381" type="curve" smooth="yes"/>
      <point x="124" y="269"/>
      <point x="206" y="184"/>
    </contour>
    <contour>
      <point x="332" y="220" type="curve" smooth="yes"/>
      <point x="231" y="220"/>
      <point x="161" y="292"/>
      <point x="161" y="387" type="curve" smooth="yes"/>
      <point x="161" y="520"/>
      <point x="288" y="639"/>
      <point x="420" y="639" type="curve" smooth="yes"/>
      <point x="521" y="639"/>
      <point x="591" y="567"/>
      <point x="591" y="473" type="curve" smooth="yes"/>
      <point x="591" y="345"/>
      <point x="468" y="220"/>
    </contour>
    <contour>
      <point x="420" y="280" type="line"/>
      <point x="459" y="280" type="line"/>
      <point x="401" y="398" type="line"/>
      <point x="362" y="398" type="line"/>
    </contour>
    <contour>
      <point x="304" y="421" type="line"/>
      <point x="331" y="548" type="line"/>
      <point x="413" y="548" type="line" smooth="yes"/>
      <point x="455" y="548"/>
      <point x="483" y="530"/>
      <point x="483" y="498" type="curve" smooth="yes"/>
      <point x="483" y="449"/>
      <point x="439" y="421"/>
      <point x="386" y="421" type="curve" smooth="yes"/>
    </contour>
    <contour>
      <point x="241" y="280" type="line"/>
      <point x="275" y="280" type="line"/>
      <point x="297" y="388" type="line"/>
      <point x="385" y="388" type="line" smooth="yes"/>
      <point x="454" y="388"/>
      <point x="517" y="438"/>
      <point x="517" y="504" type="curve" smooth="yes"/>
      <point x="517" y="550"/>
      <point x="480" y="580"/>
      <point x="425" y="580" type="curve" smooth="yes"/>
      <point x="303" y="580" type="line"/>
    </contour>
  </outline>
</glyph>
<glyph name="paragraph" format="1">
  <advance width="635"/>
  <unicode hex="00B6"/>
  <outline>
    <contour>
      <point x="214" y="-50" type="line"/>
      <point x="250" y="-50" type="line"/>
      <point x="396" y="651" type="line"/>
      <point x="530" y="651" type="line"/>
      <point x="384" y="-50" type="line"/>
      <point x="420" y="-50" type="line"/>
      <point x="573" y="687" type="line"/>
      <point x="358" y="687" type="line"/>
      <point x="221" y="687"/>
      <point x="102" y="585"/>
      <point x="102" y="456" type="curve" smooth="yes"/>
      <point x="102" y="364"/>
      <point x="172" y="303"/>
      <point x="289" y="303" type="curve"/>
    </contour>
  </outline>
</glyph>
<glyph name="cedilla" format="1">
  <advance width="294"/>
  <unicode hex="00B8"/>
  <outline>
    <contour>
      <point x="45" y="-192" type="curve" smooth="yes"/>
      <point x="100" y="-192"/>
      <point x="153" y="-146"/>
      <point x="153" y="-97" type="curve" smooth="yes"/>
      <point x="153" y="-66"/>
      <point x="131" y="-45"/>
      <point x="96" y="-45" type="curve" smooth="yes"/>
      <point x="80" y="-45"/>
      <point x="55" y="-53"/>
      <point x="37" y="-66" type="curve"/>
      <point x="72" y="-67" type="line"/>
      <point x="121" y="11" type="line"/>
      <point x="81" y="11" type="line"/>
      <point x="33" y="-67" type="line"/>
      <point x="46" y="-85" type="line"/>
      <point x="57" y="-77"/>
      <point x="71" y="-73"/>
      <point x="84" y="-73" type="curve" smooth="yes"/>
      <point x="105" y="-73"/>
      <point x="117" y="-84"/>
      <point x="117" y="-103" type="curve" smooth="yes"/>
      <point x="117" y="-132"/>
      <point x="85" y="-156"/>
      <point x="47" y="-156" type="curve" smooth="yes"/>
      <point x="26" y="-156"/>
      <point x="4" y="-148"/>
      <point x="-12" y="-132" type="curve"/>
      <point x="-32" y="-163" type="line"/>
      <point x="-11" y="-181"/>
      <point x="17" y="-192"/>
    </contour>
    <contour>
      <point x="96" y="0" type="move" name="_bottom"/>
    </contour>
  </outline>
</glyph>
<glyph name="multiply" format="1">
  <advance width="532"/>
  <unicode hex="00D7"/>
  <outline>
    <contour>
      <point x="97" y="159" type="line"/>
      <point x="488" y="484" type="line"/>
      <point x="466" y="509" type="line"/>
      <point x="76" y="185" type="line"/>
    </contour>
    <contour>
      <point x="396" y="159" type="line"/>
      <point x="425" y="185" type="line"/>
      <point x="167" y="509" type="line"/>
      <point x="137" y="484" type="line"/>
    </contour>
  </outline>
</glyph>
<glyph name="Thorn" format="1">
  <advance width="725"/>
  <unicode hex="00DE"/>
  <outline>
    <contour>
      <point x="63" y="0" type="line"/>
      <point x="99" y="0" type="line"/>
      <point x="128" y="136" type="line"/>
      <point x="382" y="136" type="line" smooth="yes"/>
      <point x="535" y="136"/>
      <point x="667" y="244"/>
      <point x="667" y="388" type="curve" smooth="yes"/>
      <point x="667" y="488"/>
      <point x="589" y="556"/>
      <point x="467" y="556" type="curve" smooth="yes"/>
      <point x="215" y="556" type="line"/>
      <point x="242" y="687" type="line"/>
      <point x="206" y="687" type="line"/>
    </contour>
    <contour>
      <point x="135" y="172" type="line"/>
      <point x="208" y="520" type="line"/>
      <point x="455" y="520" type="line" smooth="yes"/>
      <point x="563" y="520"/>
      <point x="631" y="465"/>
      <point x="631" y="383" type="curve" smooth="yes"/>
      <point x="631" y="264"/>
      <point x="514" y="172"/>
      <point x="380" y="172" type="curve" smooth="yes"/>
    </contour>
  </outline>
</glyph>
<glyph name="germandbls" format="1">
  <advance width="560"/>
  <unicode hex="00DF"/>
  <outline>
    <contour>
      <point x="40" y="0" type="line"/>
      <point x="76" y="0" type="line"/>
      <point x="184" y="516" type="line" smooth="yes"/>
      <point x="201" y="600"/>
      <point x="287" y="671"/>
      <point x="371" y="671" type="curve" smooth="yes"/>
      <point x="442" y="671"/>
      <point x="491" y="619"/>
      <point x="491" y="552" type="curve" smooth="yes"/>
      <point x="491" y="459"/>
      <point x="409" y="379"/>
      <point x="308" y="379" type="curve" smooth="yes"/>
      <point x="241" y="379" type="line"/>
      <point x="234" y="343" type="line"/>
      <point x="309" y="343" type="line" smooth="yes"/>
      <point x="397" y="343"/>
      <point x="451" y="296"/>
      <point x="451" y="228" type="curve" smooth="yes"/>
      <point x="451" y="132"/>
      <point x="349" y="36"/>
      <point x="245" y="36" type="curve" smooth="yes"/>
      <point x="170" y="36" type="line"/>
      <point x="162" y="0" type="line"/>
      <point x="261" y="0" type="line" smooth="yes"/>
      <point x="374" y="0"/>
      <point x="486" y="113"/>
      <point x="486" y="224" type="curve" smooth="yes"/>
      <point x="486" y="285"/>
      <point x="454" y="340"/>
      <point x="404" y="364" type="curve"/>
      <point x="472" y="392"/>
      <point x="528" y="482"/>
      <point x="528" y="557" type="curve" smooth="yes"/>
      <point x="528" y="641"/>
      <point x="464" y="707"/>
      <point x="373" y="707" type="curve" smooth="yes"/>
      <point x="272" y="707"/>
      <point x="170" y="624"/>
      <point x="150" y="524" type="curve" smooth="yes"/>
    </contour>
  </outline>
</glyph>
<glyph name="eth" format="1">
  <advance width="625"/>
  <unicode hex="00F0"/>
  <outline>
    <contour>
      <point x="260" y="24" type="curve" smooth="yes"/>
      <point x="157" y="24"/>
      <point x="93" y="90"/>
      <point x="93" y="188" type="curve" smooth="yes"/>
      <point x="93" y="332"/>
      <point x="208" y="467"/>
      <point x="359" y="467" type="curve" smooth="yes"/>
      <point x="464" y="467"/>
      <point x="526" y="403"/>
      <point x="526" y="306" type="curve" smooth="yes"/>
      <point x="526" y="162"/>
      <point x="410" y="24"/>
    </contour>
    <contour>
      <point x="399" y="623"/>
      <point x="488" y="525"/>
      <point x="522" y="414" type="curve"/>
      <point x="487" y="478"/>
      <point x="427" y="503"/>
      <point x="360" y="503" type="curve" smooth="yes"/>
      <point x="191" y="503"/>
      <point x="57" y="353"/>
      <point x="57" y="186" type="curve" smooth="yes"/>
      <point x="57" y="67"/>
      <point x="134" y="-12"/>
      <point x="259" y="-12" type="curve" smooth="yes"/>
      <point x="433" y="-12"/>
      <point x="564" y="149"/>
      <point x="564" y="325" type="curve" smooth="yes"/>
      <point x="564" y="483"/>
      <point x="458" y="625"/>
      <point x="329" y="712" type="curve"/>
      <point x="295" y="697" type="line"/>
    </contour>
    <contour>
      <point x="267" y="545" type="line"/>
      <point x="528" y="652" type="line"/>
      <point x="519" y="685" type="line"/>
      <point x="258" y="578" type="line"/>
    </contour>
  </outline>
</glyph>
<glyph name="oslash" format="1">
  <advance width="670"/>
  <unicode hex="00F8"/>
  <outline>
    <contour>
      <point x="19" y="0" type="line"/>
      <point x="68" y="0" type="line"/>
      <point x="617" y="517" type="line"/>
      <point x="567" y="517" type="line"/>
    </contour>
    <component base="o" xOffset="2"/>
  </outline>
</glyph>
<glyph name="dcroat" format="1">
  <advance width="633"/>
  <unicode hex="0111"/>
  <outline>
    <contour>
      <point x="369" y="592" type="line"/>
      <point x="659" y="592" type="line"/>
      <point x="666" y="628" type="line"/>
      <point x="376" y="628" type="line"/>
    </contour>
    <component base="d"/>
  </outline>
</glyph>
<glyph name="lslash" format="1">
  <advance width="299"/>
  <unicode hex="0142"/>
  <outline>
    <contour>
      <point x="51" y="249" type="line"/>
      <point x="266" y="349" type="line"/>
      <point x="274" y="390" type="line"/>
      <point x="59" y="290" type="line"/>
    </contour>
    <component base="l" xOffset="39"/>
  </outline>
</glyph>
<glyph name="OE" format="1">
  <advance width="1048"/>
  <unicode hex="0152"/>
  <outline>
    <contour>
      <point x="95" y="277" type="curve" smooth="yes"/>
      <point x="95" y="117"/>
      <point x="217" y="0"/>
      <point x="384" y="0" type="curve" smooth="yes"/>
      <point x="918" y="0" type="line"/>
      <point x="926" y="36" type="line"/>
      <point x="511" y="36" type="line"/>
      <point x="572" y="332" type="line"/>
      <point x="957" y="332" type="line"/>
      <point x="964" y="368" type="line"/>
      <point x="580" y="368" type="line"/>
      <point x="638" y="651" type="line"/>
      <point x="1054" y="651" type="line"/>
      <point x="1061" y="687" type="line"/>
      <point x="524" y="687" type="line" smooth="yes"/>
      <point x="303" y="687"/>
      <point x="95" y="491"/>
    </contour>
    <contour>
      <point x="131" y="280" type="curve" smooth="yes"/>
      <point x="131" y="475"/>
      <point x="322" y="651"/>
      <point x="519" y="651" type="curve" smooth="yes"/>
      <point x="603" y="651" type="line"/>
      <point x="474" y="36" type="line"/>
      <point x="388" y="36" type="line" smooth="yes"/>
      <point x="237" y="36"/>
      <point x="131" y="139"/>
    </contour>
  </outline>
</glyph>
<glyph name="jdotless" format="1">
  <advance width="224"/>
  <unicode hex="0237"/>
  <outline>
    <contour>
      <point x="-65" y="-178" type="curve" smooth="yes"/>
      <point x="-3" y="-178"/>
      <point x="50" y="-128"/>
      <point x="65" y="-57" type="curve" smooth="yes"/>
      <point x="184" y="517" type="line"/>
      <point x="148" y="517" type="line"/>
      <point x="29" y="-55" type="line" smooth="yes"/>
      <point x="19" y="-105"/>
      <point x="-21" y="-142"/>
      <point x="-65" y="-142" type="curve" smooth="yes"/>
      <point x="-88" y="-142"/>
      <point x="-116" y="-137"/>
      <point x="-133" y="-129" type="curve"/>
      <point x="-144" y="-161" type="line"/>
      <point x="-125" y="-170"/>
      <point x="-93" y="-178"/>
    </contour>
    <contour>
      <point x="166" y="517" type="move" name="top"/>
    </contour>
  </outline>
</glyph>
<glyph name="caron" format="1">
  <advance width="349"/>
  <unicode hex="02C7"/>
  <outline>
    <contour>
      <point x="219" y="576" type="line"/>
      <point x="263" y="576" type="line"/>
      <point x="399" y="713" type="line"/>
      <point x="354" y="713" type="line"/>
      <point x="246" y="607" type="line"/>
      <point x="184" y="713" type="line"/>
      <point x="141" y="713" type="line"/>
    </contour>
    <contour>
      <point x="228" y="517" type="move" name="_top"/>
    </contour>
    <contour>
      <point x="267" y="704" type="move" name="top"/>
    </contour>
  </outline>
</glyph>
<glyph name="tilde" format="1">
  <advance width="450"/>
  <unicode hex="02DC"/>
  <outline>
    <contour>
      <point x="360" y="586" type="curve" smooth="yes"/>
      <point x="408" y="586"/>
      <point x="448" y="625"/>
      <point x="471" y="693" type="curve"/>
      <point x="436" y="702" type="line"/>
      <point x="417" y="652"/>
      <point x="389" y="622"/>
      <point x="362" y="622" type="curve" smooth="yes"/>
      <point x="322" y="622"/>
      <point x="307" y="688"/>
      <point x="247" y="688" type="curve" smooth="yes"/>
      <point x="200" y="688"/>
      <point x="159" y="649"/>
      <point x="136" y="581" type="curve"/>
      <point x="171" y="572" type="line"/>
      <point x="189" y="622"/>
      <point x="218" y="652"/>
      <point x="245" y="652" type="curve" smooth="yes"/>
      <point x="285" y="652"/>
      <point x="300" y="586"/>
    </contour>
    <contour>
      <point x="279" y="517" type="move" name="_top"/>
    </contour>
    <contour>
      <point x="318" y="704" type="move" name="top"/>
    </contour>
  </outline>
</glyph>
<glyph name="hungarumlaut" format="1">
  <advance width="410"/>
  <unicode hex="02DD"/>
  <outline>
    <contour>
      <point x="102" y="576" type="line"/>
      <point x="151" y="576" type="line"/>
      <point x="296" y="709" type="line"/>
      <point x="256" y="718" type="line"/>
    </contour>
    <contour>
      <point x="268" y="576" type="line"/>
      <point x="317" y="576" type="line"/>
      <point x="462" y="709" type="line"/>
      <point x="422" y="718" type="line"/>
    </contour>
    <contour>
      <point x="196" y="517" type="move" name="_top"/>
    </contour>
    <contour>
      <point x="234" y="704" type="move" name="top"/>
    </contour>
  </outline>
</glyph>
<glyph name="dotaccentcomb" format="1">
  <advance width="224"/>
  <unicode hex="0307"/>
  <outline>
    <contour>
      <point x="192" y="631" type="curve" smooth="yes"/>
      <point x="208" y="631"/>
      <point x="225" y="647"/>
      <point x="225" y="665" type="curve" smooth="yes"/>
      <point x="225" y="680"/>
      <point x="214" y="691"/>
      <point x="198" y="691" type="curve" smooth="yes"/>
      <point x="180" y="691"/>
      <point x="165" y="673"/>
      <point x="165" y="656" type="curve" smooth="yes"/>
      <point x="165" y="641"/>
      <point x="176" y="631"/>
    </contour>
    <contour>
      <point x="165" y="517" type="move" name="_top"/>
    </contour>
  </outline>
</glyph>
<glyph name="emdash" format="1">
  <advance width="954"/>
  <unicode hex="2014"/>
  <outline>
    <contour>
      <point x="91" y="254" type="line"/>
      <point x="861" y="254" type="line"/>
      <point x="869" y="290" type="line"/>
      <point x="99" y="290" type="line"/>
    </contour>
  </outline>
</glyph>
<glyph name="guilsinglleft" format="1">
  <advance width="285"/>
  <unicode hex="2039"/>
  <outline>
    <contour>
      <point x="157" y="55" type="line"/>
      <point x="190" y="60" type="line"/>
      <point x="68" y="249" type="line"/>
      <point x="270" y="437" type="line"/>
      <point x="236" y="442" type="line"/>
      <point x="28" y="249" type="line"/>
    </contour>
  </outline>
</glyph>
<glyph name="guilsinglright" format="1">
  <advance width="277"/>
  <unicode hex="203A"/>
  <outline>
    <contour>
      <point x="37" y="55" type="line"/>
      <point x="244" y="249" type="line"/>
      <point x="116" y="442" type="line"/>
      <point x="90" y="437" type="line"/>
      <point x="212" y="249" type="line"/>
      <point x="10" y="60" type="line"/>
    </contour>
  </outline>
</glyph>
<glyph name="euro" format="1">
  <advance width="855"/>
  <unicode hex="20AC"/>
  <outline>
    <contour>
      <point x="72" y="252" type="line"/>
      <point x="568" y="252" type="line"/>
      <point x="575" y="288" type="line"/>
      <point x="79" y="288" type="line"/>
    </contour>
    <contour>
      <point x="107" y="419" type="line"/>
      <point x="603" y="419" type="line"/>
      <point x="610" y="455" type="line"/>
      <point x="114" y="455" type="line"/>
    </contour>
    <component base="C" xOffset="97"/>
  </outline>
</glyph>
<glyph name="a.alt" format="1">
  <advance width="553"/>
  <outline>
    <contour>
      <point x="378" y="0" type="curve"/>
      <point x="414" y="0" type="line"/>
      <point x="479" y="311"/>
      <point x="486" y="331"/>
      <point x="486" y="370" type="curve" smooth="yes"/>
      <point x="486" y="465"/>
      <point x="428" y="529"/>
      <point x="323" y="529" type="curve" smooth="yes"/>
      <point x="270" y="529"/>
      <point x="200" y="513"/>
      <point x="136" y="480" type="curve"/>
      <point x="147" y="447" type="line"/>
      <point x="201" y="476"/>
      <point x="262" y="493"/>
      <point x="316" y="493" type="curve" smooth="yes"/>
      <point x="414" y="493"/>
      <point x="449" y="434"/>
      <point x="449" y="365" type="curve" smooth="yes"/>
      <point x="449" y="329"/>
      <point x="445" y="320"/>
    </contour>
    <contour>
      <point x="174" y="-12" type="curve" smooth="yes"/>
      <point x="261" y="-12"/>
      <point x="382" y="35"/>
      <point x="421" y="122" type="curve"/>
      <point x="412" y="163" type="line"/>
      <point x="373" y="70"/>
      <point x="260" y="24"/>
      <point x="180" y="24" type="curve" smooth="yes"/>
      <point x="105" y="24"/>
      <point x="52" y="66"/>
      <point x="52" y="127" type="curve" smooth="yes"/>
      <point x="52" y="221"/>
      <point x="151" y="289"/>
      <point x="263" y="289" type="curve" smooth="yes"/>
      <point x="326" y="289"/>
      <point x="394" y="269"/>
      <point x="445" y="249" type="curve"/>
      <point x="449" y="283" type="line"/>
      <point x="393" y="307"/>
      <point x="323" y="325"/>
      <point x="260" y="325" type="curve" smooth="yes"/>
      <point x="130" y="325"/>
      <point x="16" y="241"/>
      <point x="16" y="121" type="curve" smooth="yes"/>
      <point x="16" y="41"/>
      <point x="79" y="-12"/>
    </contour>
    <contour>
      <point x="414" y="0" type="move" name="bottom"/>
    </contour>
    <contour>
      <point x="320" y="517" type="move" name="top"/>
    </contour>
  </outline>
</glyph>
<glyph name="ascender" format="1">
  <advance width="237"/>
  <outline>
    <contour>
      <point x="47" y="0" type="line"/>
      <point x="83" y="0" type="line"/>
      <point x="228" y="699" type="line"/>
      <point x="192" y="699" type="line"/>
    </contour>
    <contour>
      <point x="100" y="125" type="move" name="k_arms"/>
    </contour>
    <contour>
      <point x="99" y="249" type="move" name="loop_left"/>
    </contour>
    <contour>
      <point x="136" y="257" type="move" name="loop_right"/>
    </contour>
    <contour>
      <point x="151" y="329" type="move" name="shoulder"/>
    </contour>
  </outline>
</glyph>
<glyph name="capital_V" format="1">
  <advance width="676"/>
  <outline>
    <contour>
      <point x="263" y="0" type="line"/>
      <point x="304" y="0" type="line"/>
      <point x="750" y="687" type="line"/>
      <point x="709" y="687" type="line"/>
    </contour>
    <contour>
      <point x="264" y="0" type="line"/>
      <point x="303" y="0" type="line"/>
      <point x="143" y="687" type="line"/>
      <point x="104" y="687" type="line"/>
    </contour>
  </outline>
</glyph>
<glyph name="descender" format="1">
  <advance width="237"/>
  <outline>
    <contour>
      <point x="11" y="-172" type="line"/>
      <point x="47" y="-172" type="line"/>
      <point x="190" y="517" type="line"/>
      <point x="154" y="517" type="line"/>
    </contour>
    <contour>
      <point x="99" y="249" type="move" name="loop_left"/>
    </contour>
    <contour>
      <point x="136" y="257" type="move" name="loop_right"/>
    </contour>
  </outline>
</glyph>
<glyph name="lowercase_loop" format="1">
  <advance width="646"/>
  <outline>
    <contour>
      <point x="275" y="-12" type="curve" smooth="yes"/>
      <point x="421" y="-12"/>
      <point x="567" y="153"/>
      <point x="567" y="318" type="curve" smooth="yes"/>
      <point x="567" y="442"/>
      <point x="490" y="529"/>
      <point x="382" y="529" type="curve" smooth="yes"/>
      <point x="219" y="529"/>
      <point x="81" y="374"/>
      <point x="81" y="190" type="curve" smooth="yes"/>
      <point x="81" y="63"/>
      <point x="153" y="-12"/>
    </contour>
    <contour>
      <point x="270" y="24" type="curve" smooth="yes"/>
      <point x="174" y="24"/>
      <point x="117" y="86"/>
      <point x="117" y="192" type="curve" smooth="yes"/>
      <point x="117" y="355"/>
      <point x="234" y="493"/>
      <point x="373" y="493" type="curve" smooth="yes"/>
      <point x="465" y="493"/>
      <point x="530" y="419"/>
      <point x="530" y="314" type="curve" smooth="yes"/>
      <point x="530" y="169"/>
      <point x="400" y="24"/>
    </contour>
    <contour>
      <point x="123" y="257" type="move" name="_loop_right"/>
    </contour>
  </outline>
</glyph>
<glyph name="lowercase_m_shoulder" format="1">
  <advance width="480"/>
  <outline>
    <contour>
      <point x="285" y="0" type="curve"/>
      <point x="321" y="0" type="line"/>
      <point x="391" y="336"/>
      <point x="397" y="351"/>
      <point x="397" y="381" type="curve" smooth="yes"/>
      <point x="397" y="471"/>
      <point x="345" y="529"/>
      <point x="251" y="529" type="curve" smooth="yes"/>
      <point x="159" y="529"/>
      <point x="76" y="474"/>
      <point x="59" y="392" type="curve"/>
      <point x="57" y="340" type="line"/>
      <point x="75" y="429"/>
      <point x="156" y="493"/>
      <point x="244" y="493" type="curve" smooth="yes"/>
      <point x="318" y="493"/>
      <point x="360" y="447"/>
      <point x="360" y="372" type="curve" smooth="yes"/>
      <point x="360" y="352"/>
      <point x="357" y="344"/>
    </contour>
    <contour>
      <point x="54" y="329" type="move" name="_shoulder"/>
    </contour>
    <contour>
      <point x="390" y="329" type="move" name="shoulder"/>
    </contour>
  </outline>
</glyph>
<glyph name="thorn_stem" format="1">
  <advance width="239"/>
  <outline>
    <contour>
      <point x="12" y="-172" type="line"/>
      <point x="48" y="-172" type="line"/>
      <point x="229" y="699" type="line"/>
      <point x="193" y="699" type="line"/>
    </contour>
    <contour>
      <point x="138" y="257" type="move" name="loop_right"/>
    </contour>
  </outline>
</glyph>
